<mxfile host="Electron" agent="Mozilla/5.0 (Macintosh; Intel Mac OS X 10_15_7) AppleWebKit/537.36 (KHTML, like Gecko) draw.io/28.1.2 Chrome/138.0.7204.243 Electron/37.4.0 Safari/537.36" version="28.1.2">
  <diagram name="Page-1" id="xYLGO1SmAuwbuVhchBxC">
    <mxGraphModel dx="946" dy="673" grid="1" gridSize="10" guides="1" tooltips="1" connect="1" arrows="1" fold="1" page="1" pageScale="1" pageWidth="850" pageHeight="1100" math="0" shadow="0">
      <root>
        <mxCell id="0" />
        <mxCell id="1" parent="0" />
        <mxCell id="cLakpo7kRlrrpEvZxo0Q-1" value="" style="rounded=0;whiteSpace=wrap;html=1;fillColor=#fff2cc;strokeColor=#d6b656;sketch=1;curveFitting=1;jiggle=2;" vertex="1" parent="1">
          <mxGeometry x="650" y="200" width="80" height="320" as="geometry" />
        </mxCell>
        <mxCell id="cLakpo7kRlrrpEvZxo0Q-2" value="" style="group;sketch=1;curveFitting=1;jiggle=2;" vertex="1" connectable="0" parent="1">
          <mxGeometry x="570" y="490" width="70" height="30" as="geometry" />
        </mxCell>
        <mxCell id="cLakpo7kRlrrpEvZxo0Q-3" value="栈顶" style="text;html=1;align=center;verticalAlign=middle;whiteSpace=wrap;rounded=0;fontSize=18;" vertex="1" parent="cLakpo7kRlrrpEvZxo0Q-2">
          <mxGeometry x="20" width="40" height="30" as="geometry" />
        </mxCell>
        <mxCell id="cLakpo7kRlrrpEvZxo0Q-4" value="" style="endArrow=classic;html=1;rounded=0;" edge="1" parent="cLakpo7kRlrrpEvZxo0Q-2">
          <mxGeometry width="50" height="50" relative="1" as="geometry">
            <mxPoint y="29" as="sourcePoint" />
            <mxPoint x="70" y="29" as="targetPoint" />
          </mxGeometry>
        </mxCell>
        <mxCell id="cLakpo7kRlrrpEvZxo0Q-5" value="" style="rounded=0;whiteSpace=wrap;html=1;fillColor=#fff2cc;strokeColor=#d6b656;sketch=1;curveFitting=1;jiggle=2;" vertex="1" parent="1">
          <mxGeometry x="480" y="200" width="80" height="320" as="geometry" />
        </mxCell>
        <mxCell id="cLakpo7kRlrrpEvZxo0Q-6" value="&lt;font style=&quot;font-size: 20px;&quot;&gt;1&lt;/font&gt;" style="ellipse;whiteSpace=wrap;html=1;aspect=fixed;fillColor=#e1d5e7;strokeColor=#9673a6;sketch=1;curveFitting=1;jiggle=2;" vertex="1" parent="1">
          <mxGeometry x="495" y="460" width="50" height="50" as="geometry" />
        </mxCell>
        <mxCell id="cLakpo7kRlrrpEvZxo0Q-7" value="" style="group;sketch=1;curveFitting=1;jiggle=2;glass=0;" vertex="1" connectable="0" parent="1">
          <mxGeometry x="400" y="430" width="70" height="30" as="geometry" />
        </mxCell>
        <mxCell id="cLakpo7kRlrrpEvZxo0Q-8" value="栈顶" style="text;html=1;align=center;verticalAlign=middle;whiteSpace=wrap;rounded=0;fontSize=18;" vertex="1" parent="cLakpo7kRlrrpEvZxo0Q-7">
          <mxGeometry x="20" width="40" height="30" as="geometry" />
        </mxCell>
        <mxCell id="cLakpo7kRlrrpEvZxo0Q-9" value="" style="endArrow=classic;html=1;rounded=0;" edge="1" parent="cLakpo7kRlrrpEvZxo0Q-7">
          <mxGeometry width="50" height="50" relative="1" as="geometry">
            <mxPoint y="29" as="sourcePoint" />
            <mxPoint x="70" y="29" as="targetPoint" />
          </mxGeometry>
        </mxCell>
        <mxCell id="cLakpo7kRlrrpEvZxo0Q-10" value="" style="group" vertex="1" connectable="0" parent="1">
          <mxGeometry x="310" y="200" width="80" height="320" as="geometry" />
        </mxCell>
        <mxCell id="cLakpo7kRlrrpEvZxo0Q-11" value="" style="rounded=0;whiteSpace=wrap;html=1;fillColor=#fff2cc;strokeColor=#d6b656;sketch=1;curveFitting=1;jiggle=2;" vertex="1" parent="cLakpo7kRlrrpEvZxo0Q-10">
          <mxGeometry width="80" height="320" as="geometry" />
        </mxCell>
        <mxCell id="cLakpo7kRlrrpEvZxo0Q-12" value="&lt;font style=&quot;font-size: 20px;&quot;&gt;1&lt;/font&gt;" style="ellipse;whiteSpace=wrap;html=1;aspect=fixed;fillColor=#e1d5e7;strokeColor=#9673a6;sketch=1;curveFitting=1;jiggle=2;" vertex="1" parent="cLakpo7kRlrrpEvZxo0Q-10">
          <mxGeometry x="15" y="260" width="50" height="50" as="geometry" />
        </mxCell>
        <mxCell id="cLakpo7kRlrrpEvZxo0Q-13" value="&lt;font style=&quot;font-size: 20px;&quot;&gt;2&lt;/font&gt;" style="ellipse;whiteSpace=wrap;html=1;aspect=fixed;fillColor=#e1d5e7;strokeColor=#9673a6;sketch=1;curveFitting=1;jiggle=2;" vertex="1" parent="cLakpo7kRlrrpEvZxo0Q-10">
          <mxGeometry x="15" y="200" width="50" height="50" as="geometry" />
        </mxCell>
        <mxCell id="cLakpo7kRlrrpEvZxo0Q-14" value="" style="group" vertex="1" connectable="0" parent="1">
          <mxGeometry x="230" y="370" width="70" height="30" as="geometry" />
        </mxCell>
        <mxCell id="cLakpo7kRlrrpEvZxo0Q-15" value="栈顶" style="text;html=1;align=center;verticalAlign=middle;whiteSpace=wrap;rounded=0;fontSize=18;" vertex="1" parent="cLakpo7kRlrrpEvZxo0Q-14">
          <mxGeometry x="20" width="40" height="30" as="geometry" />
        </mxCell>
        <mxCell id="cLakpo7kRlrrpEvZxo0Q-16" value="" style="endArrow=classic;html=1;rounded=0;" edge="1" parent="cLakpo7kRlrrpEvZxo0Q-14">
          <mxGeometry width="50" height="50" relative="1" as="geometry">
            <mxPoint y="29" as="sourcePoint" />
            <mxPoint x="70" y="29" as="targetPoint" />
          </mxGeometry>
        </mxCell>
        <mxCell id="cLakpo7kRlrrpEvZxo0Q-17" value="" style="group" vertex="1" connectable="0" parent="1">
          <mxGeometry x="140" y="200" width="80" height="320" as="geometry" />
        </mxCell>
        <mxCell id="cLakpo7kRlrrpEvZxo0Q-18" value="" style="rounded=0;whiteSpace=wrap;html=1;fillColor=#fff2cc;strokeColor=#d6b656;sketch=1;curveFitting=1;jiggle=2;" vertex="1" parent="cLakpo7kRlrrpEvZxo0Q-17">
          <mxGeometry width="80" height="320" as="geometry" />
        </mxCell>
        <mxCell id="cLakpo7kRlrrpEvZxo0Q-19" value="&lt;font style=&quot;font-size: 20px;&quot;&gt;1&lt;/font&gt;" style="ellipse;whiteSpace=wrap;html=1;aspect=fixed;fillColor=#e1d5e7;strokeColor=#9673a6;sketch=1;curveFitting=1;jiggle=2;" vertex="1" parent="cLakpo7kRlrrpEvZxo0Q-17">
          <mxGeometry x="15" y="260" width="50" height="50" as="geometry" />
        </mxCell>
        <mxCell id="cLakpo7kRlrrpEvZxo0Q-20" value="&lt;font style=&quot;font-size: 20px;&quot;&gt;2&lt;/font&gt;" style="ellipse;whiteSpace=wrap;html=1;aspect=fixed;fillColor=#e1d5e7;strokeColor=#9673a6;sketch=1;curveFitting=1;jiggle=2;" vertex="1" parent="cLakpo7kRlrrpEvZxo0Q-17">
          <mxGeometry x="15" y="200" width="50" height="50" as="geometry" />
        </mxCell>
        <mxCell id="cLakpo7kRlrrpEvZxo0Q-21" value="&lt;font style=&quot;font-size: 20px;&quot;&gt;3&lt;/font&gt;" style="ellipse;whiteSpace=wrap;html=1;aspect=fixed;fillColor=#e1d5e7;strokeColor=#9673a6;sketch=1;curveFitting=1;jiggle=2;" vertex="1" parent="cLakpo7kRlrrpEvZxo0Q-17">
          <mxGeometry x="15" y="140" width="50" height="50" as="geometry" />
        </mxCell>
        <mxCell id="cLakpo7kRlrrpEvZxo0Q-22" value="" style="group" vertex="1" connectable="0" parent="1">
          <mxGeometry x="60" y="300" width="70" height="30" as="geometry" />
        </mxCell>
        <mxCell id="cLakpo7kRlrrpEvZxo0Q-23" value="栈顶" style="text;html=1;align=center;verticalAlign=middle;whiteSpace=wrap;rounded=0;fontSize=18;" vertex="1" parent="cLakpo7kRlrrpEvZxo0Q-22">
          <mxGeometry x="20" width="40" height="30" as="geometry" />
        </mxCell>
        <mxCell id="cLakpo7kRlrrpEvZxo0Q-24" value="" style="endArrow=classic;html=1;rounded=0;" edge="1" parent="cLakpo7kRlrrpEvZxo0Q-22">
          <mxGeometry width="50" height="50" relative="1" as="geometry">
            <mxPoint y="29" as="sourcePoint" />
            <mxPoint x="70" y="29" as="targetPoint" />
          </mxGeometry>
        </mxCell>
        <mxCell id="cLakpo7kRlrrpEvZxo0Q-25" value="" style="shape=flexArrow;endArrow=classic;html=1;rounded=0;sketch=1;curveFitting=1;jiggle=2;fillColor=#e1d5e7;strokeColor=#9673a6;" edge="1" parent="1">
          <mxGeometry width="50" height="50" relative="1" as="geometry">
            <mxPoint x="519.5" y="190" as="sourcePoint" />
            <mxPoint x="519.5" y="140" as="targetPoint" />
          </mxGeometry>
        </mxCell>
        <mxCell id="cLakpo7kRlrrpEvZxo0Q-26" value="&lt;font style=&quot;font-size: 20px;&quot;&gt;1&lt;/font&gt;" style="ellipse;whiteSpace=wrap;html=1;aspect=fixed;fillColor=#e1d5e7;strokeColor=#9673a6;sketch=1;curveFitting=1;jiggle=2;dashed=1;" vertex="1" parent="1">
          <mxGeometry x="495" y="70" width="50" height="50" as="geometry" />
        </mxCell>
        <mxCell id="cLakpo7kRlrrpEvZxo0Q-27" value="" style="shape=flexArrow;endArrow=classic;html=1;rounded=0;sketch=1;curveFitting=1;jiggle=2;fillColor=#e1d5e7;strokeColor=#9673a6;" edge="1" parent="1">
          <mxGeometry width="50" height="50" relative="1" as="geometry">
            <mxPoint x="354.5" y="190" as="sourcePoint" />
            <mxPoint x="354.5" y="140" as="targetPoint" />
          </mxGeometry>
        </mxCell>
        <mxCell id="cLakpo7kRlrrpEvZxo0Q-28" value="&lt;font style=&quot;font-size: 20px;&quot;&gt;2&lt;/font&gt;" style="ellipse;whiteSpace=wrap;html=1;aspect=fixed;fillColor=#e1d5e7;strokeColor=#9673a6;sketch=1;curveFitting=1;jiggle=2;dashed=1;" vertex="1" parent="1">
          <mxGeometry x="330" y="70" width="50" height="50" as="geometry" />
        </mxCell>
        <mxCell id="cLakpo7kRlrrpEvZxo0Q-29" value="" style="shape=flexArrow;endArrow=classic;html=1;rounded=0;sketch=1;curveFitting=1;jiggle=2;fillColor=#e1d5e7;strokeColor=#9673a6;" edge="1" parent="1">
          <mxGeometry width="50" height="50" relative="1" as="geometry">
            <mxPoint x="179.5" y="190" as="sourcePoint" />
            <mxPoint x="179.5" y="140" as="targetPoint" />
          </mxGeometry>
        </mxCell>
        <mxCell id="cLakpo7kRlrrpEvZxo0Q-30" value="&lt;font style=&quot;font-size: 20px;&quot;&gt;3&lt;/font&gt;" style="ellipse;whiteSpace=wrap;html=1;aspect=fixed;fillColor=#e1d5e7;strokeColor=#9673a6;sketch=1;curveFitting=1;jiggle=2;dashed=1;" vertex="1" parent="1">
          <mxGeometry x="155" y="70" width="50" height="50" as="geometry" />
        </mxCell>
      </root>
    </mxGraphModel>
  </diagram>
</mxfile>
